<svg xmlns="http://www.w3.org/2000/svg" viewBox="0 0 288 504"><defs><style>.cls-1{fill:#fff;}.cls-2{fill:#302e2f;}.cls-3{fill:#f1f2f2;}.cls-4{fill:none;}.cls-5{fill:#88c53a;}.cls-6{fill:#62ab40;}</style></defs><g id="Layer_2" data-name="Layer 2"><g id="Layer_1-2" data-name="Layer 1"><g id="back"><polygon class="cls-1" points="0 504 287.99 504 288 504 288 0 0 0 0 504"/><polygon class="cls-2" points="0 504 287.99 504 288 504 288 0 0 0 0 504"/><path class="cls-3" d="M288,58.52V0H0V199.38c29.69,2.07,125.43,13.49,187.28,75.8C187.28,275.18,191.1,173,288,58.52Z"/><polygon class="cls-4" points="0 504 287.99 504 288 504 288 0 0 0 0 504"/><path class="cls-5" d="M187.28,275.18C125.43,212.87,29.69,201.45,0,199.38v22.67c41.54,0,130.64,8.91,191.34,59.28,0,0,25.11-95.29,96.66-185V58.52C191.1,173,187.28,275.18,187.28,275.18Z"/><path class="cls-6" d="M183.89,257.71C195.3,192.49,224.37,118.12,288,46.85V0H258.38C168.73,120,184.38,252.28,183.89,257.71Z"/><path class="cls-6" d="M187.43,282.7c-4.22-1.3-81.31-43.94-187.43-40.34V285C70.9,268,134.29,271,187.43,282.7Z"/></g></g></g></svg>