<svg xmlns="http://www.w3.org/2000/svg" viewBox="0 0 23.95 20.74"><defs><style>.cls-1{fill:#62ab40;}.cls-2{fill:#fff;}</style></defs><g id="Layer_2" data-name="Layer 2"><g id="Layer_1-2" data-name="Layer 1"><g id="back"><g id="call"><polygon class="cls-1" points="5.99 20.74 0 10.37 5.99 0 17.96 0 23.95 10.37 17.96 20.74 5.99 20.74"/><path class="cls-2" d="M9.93,8.29,7.09,5.46l1.1-1.1a.44.44,0,0,1,.61,0L11,6.56a.44.44,0,0,1,0,.62l-.93.94a.8.8,0,0,0-.15.17Z"/><path class="cls-2" d="M12.26,12.92c-.46-.4-.91-.82-1.34-1.26s-.86-.88-1.26-1.34a1.42,1.42,0,0,1-.22-1.39L6.53,6c-.68.69-.59,2.42.15,3.94a10.54,10.54,0,0,0,1.16,1.81,17.58,17.58,0,0,0,1.39,1.59,16.19,16.19,0,0,0,1.58,1.39,10.94,10.94,0,0,0,1.81,1.16c1.52.74,3.25.82,3.94.14l-2.91-2.91a1.4,1.4,0,0,1-1.39-.22Z"/><path class="cls-2" d="M18.23,13.78,16,11.57a.44.44,0,0,0-.62,0l-.49.49-.45.44a.8.8,0,0,1-.17.15l2.83,2.84,1.1-1.1a.42.42,0,0,0,0-.61Z"/></g></g></g></g></svg>