<svg xmlns="http://www.w3.org/2000/svg" viewBox="0 0 288 504"><defs><style>.cls-1{fill:#302e2f;}.cls-2{fill:#f1f2f2;}.cls-3{fill:#88c53a;}.cls-4{fill:#62ab40;}</style></defs><g id="Layer_2" data-name="Layer 2"><g id="Layer_1-2" data-name="Layer 1"><g id="front"><polygon class="cls-1" points="0 504 287.99 504 288 504 288 0 0 0 0 504"/><path class="cls-1" d="M0,0H0V276.54C33,295,93.93,336,120.78,400.29c0,0,40-88.87,167.22-154.09V0Z"/><path class="cls-2" d="M122.13,407C90.34,347.76,35.62,315.28,0,299.49V504H288V267.7C169.87,319.54,122.13,407,122.13,407Z"/><path class="cls-3" d="M120.78,400.29C93.93,336,33,295,0,276.54v22.95C35.62,315.28,90.34,347.76,122.13,407c0,0,47.74-87.5,165.87-139.34V246.2C160.81,311.42,120.78,400.29,120.78,400.29Z"/><path class="cls-4" d="M125.9,379.72C157.87,326.67,208.34,271.6,288,231V174.11C160.92,247.66,128.23,375,125.9,379.72Z"/><path class="cls-4" d="M0,318.55v33.76c47.33,8.69,91.67,30.35,118.26,56.35C115.42,406.35,92.28,352.64,0,318.55Z"/></g></g></g></svg>