<svg xmlns="http://www.w3.org/2000/svg" viewBox="0 0 23.96 20.74"><defs><style>.cls-1{fill:#fff;}.cls-2{fill:#62ab40;}</style></defs><g id="Layer_2" data-name="Layer 2"><g id="Layer_1-2" data-name="Layer 1"><g id="back"><g id="website"><polygon class="cls-1" points="5.99 20.74 0 10.37 5.99 0 17.96 0 23.95 10.37 17.96 20.74 5.99 20.74"/><path class="cls-2" d="M6.75,9.25c0,.1,0,.19,0,.28a2.7,2.7,0,0,1,0,.28,5.43,5.43,0,0,0,0,.57,5.52,5.52,0,0,0,0,.58,2.36,2.36,0,0,1,0,.28c0,.09,0,.18,0,.28l.06.27c.05.17.1.35.16.52l.11.26c0,.08.07.16.11.25l.06.12c0,.08.08.16.13.24a6,6,0,0,0,.45.67c.09.1.17.21.26.3a1.8,1.8,0,0,0,.19.2l.19.19a5.69,5.69,0,0,0,1,.71l.24.13a4.46,4.46,0,0,0,.5.22l.26.1a5.6,5.6,0,0,0,1.79.29,5.7,5.7,0,0,0,1.25-.13L14,15.7l.26-.1a4.46,4.46,0,0,0,.5-.22l.24-.13a5.26,5.26,0,0,0,1-.71l.2-.19a1.8,1.8,0,0,0,.19-.2c.09-.09.17-.2.26-.3a6.18,6.18,0,0,0,.36-.53l.09-.14.13-.24.06-.12c0-.09.08-.17.11-.25a2.77,2.77,0,0,0,.1-.26,5.25,5.25,0,0,0,.17-.52l.06-.27c0-.1,0-.19.05-.28l0-.28a5.53,5.53,0,0,0,0-1.15l0-.28a2.56,2.56,0,0,0-.05-.27L17.68,9a4.51,4.51,0,0,0-.17-.52.5.5,0,0,0-.05-.13c-.05-.13-.1-.25-.16-.38l-.06-.12-.13-.24a6,6,0,0,0-.45-.67l-.26-.31c-.06-.06-.12-.13-.19-.19a1.8,1.8,0,0,0-.2-.19c-.12-.11-.26-.22-.4-.33A4.35,4.35,0,0,0,15,5.52l-.24-.13-.11-.06-.14-.06-.06,0-.19-.08h0l-.21-.07-.05,0a3.8,3.8,0,0,0-.51-.14l-.16,0-.12,0a4.5,4.5,0,0,0-.9-.09h-.28a5.73,5.73,0,0,0-1.62.29l-.26.1-.08,0-.17.07-.25.12-.24.13a5.43,5.43,0,0,0-.88.63l-.1.08c-.06.06-.13.12-.19.19l-.19.19-.26.31a6,6,0,0,0-.45.67c0,.08-.09.16-.13.24L7.19,8A3.08,3.08,0,0,0,7,8.33L7,8.46c-.06.17-.11.34-.16.52l-.06.27Zm4.54-4.09.05,0c.05,0,.11,0,.16,0s.11,0,.17,0,.27.12.35.07,0,0,0-.08a.93.93,0,0,0,0-.1h.13a5.22,5.22,0,0,1,1.06.1s-.06,0-.1,0,0,.06-.09.06-.2,0-.29,0,0,.06.07.08a.48.48,0,0,0,.28,0c.06,0,.13,0,.18,0s0-.07.06-.1l.05,0,.18,0s-.08,0-.08.09a.21.21,0,0,0,.18-.06h0l.26.09.35.14-.06,0c-.06,0-.08-.07-.13,0s.07.09.11.12.11.06.12.12-.12,0-.2,0-.21.16-.28,0,.09-.08.11-.15H14l-.09.05a.33.33,0,0,1-.12,0l-.12,0c-.07,0-.12.07-.2.1l-.1,0a1.2,1.2,0,0,0-.23.11,1.3,1.3,0,0,0-.21.12.28.28,0,0,0-.09.13s.07,0,.07.08,0,.07,0,.11.07,0,.12,0a.56.56,0,0,1,.23.12.44.44,0,0,0,.19.07c.08,0,.18,0,.19,0s-.08.08-.09.12,0,.09,0,.14.06.11.1.11a.21.21,0,0,0,.17-.12c0-.07,0-.17.08-.22.28,0,.52-.13.5-.42a.29.29,0,0,1,0-.09s.09-.09.08-.15A.09.09,0,0,0,14.49,6s0-.09.09-.1h.09a.38.38,0,0,0,.16,0l.09,0c.06,0,.1.08.14.12s.08,0,.09.06-.06.06-.05.12h0s.06.09.08.1a.32.32,0,0,0,.16,0,1.13,1.13,0,0,0,.13-.1l.17.14a.25.25,0,0,1,0,.07c0,.06,0,.11,0,.17s.14.09.2.15,0,0,0,.08.07,0,.07.08-.09.11-.08.23-.08,0-.07.1.14,0,.18.1,0,.06,0,.12,0,.14,0,.14-.06,0-.11-.06h-.1l-.1,0c-.08,0-.16,0-.2,0a2.2,2.2,0,0,1,.26-.27s.09,0,.07-.09-.11,0-.16,0a.89.89,0,0,1-.17.08c-.1,0-.23,0-.31,0s.09,0,.07.1a.16.16,0,0,1-.1,0s0-.07,0-.08a.43.43,0,0,0-.2,0,.14.14,0,0,0-.13.1c.08,0,.2,0,.23,0s-.14.12-.12.22a.14.14,0,0,0,.08.1s.05,0,.08,0,0,0,.07,0,.09-.11.16-.11-.08.15-.16.18-.22,0-.29.08-.19.16-.21.05.07-.05.09-.12-.18,0-.26.07-.33.08-.36.22,0,.07,0,.09l-.14,0-.14.07-.09,0s-.06.08-.12.12l-.09.05s0,.11-.09.12-.06,0-.09,0,0,.18,0,.26a1.4,1.4,0,0,1-.24.15L12.85,9s-.08.07-.13.1-.25.15-.25.32,0,.08,0,.12v.08c0,.06.06.14,0,.18a.51.51,0,0,1-.24-.1c0-.06,0-.11,0-.16a.24.24,0,0,0-.11-.13s-.07,0-.11,0-.08-.06-.14-.07-.15,0-.24,0-.12.13-.23.13l-.12,0a.52.52,0,0,0-.18,0,.88.88,0,0,0-.26.12c-.08,0-.19.09-.21.18a.68.68,0,0,1,0,.15.35.35,0,0,1-.05.08.59.59,0,0,0-.07.46,1.86,1.86,0,0,0,.1.2.28.28,0,0,0,.17.09l.15,0a.66.66,0,0,0,.15,0c.13,0,.11-.21.24-.27l.22,0a.12.12,0,0,1,0,.11s0,.07,0,.11,0,.08,0,.12a.87.87,0,0,0-.08.1s0,.06,0,.08-.07.07,0,.11.28,0,.39,0,.15.07.15.14,0,.09,0,.15,0,.17,0,.23.15.28.25.27.18-.11.32,0,.1.09.15.09.1-.08.13-.13,0-.11.1-.14.11,0,.19,0a.6.6,0,0,0,.11-.06s.06-.07.09,0,0,.08,0,.13.12-.08.18-.08l.12.05s.07.08.12.09h.13c.06,0,.1.06.14.06s.09-.06.14-.07a.16.16,0,0,1,.19.08s0-.06.1,0,0,.08,0,.12,0,0,0,.06.08,0,.12.06.07.08.12.13a.32.32,0,0,0,.22.13c.06,0,.12,0,.17,0a.62.62,0,0,1,.29.15.27.27,0,0,1,.11.1s0,.08,0,.11.13.11.09.24.06.05.1.08.07.07.11.07h.07a.48.48,0,0,1,.17.05.28.28,0,0,1,.11,0s0,.09.07.1.08,0,.13,0a1.94,1.94,0,0,0,.2.05h.1a.29.29,0,0,1,.19.11,5.31,5.31,0,0,1-3.27,2.36.77.77,0,0,1,0-.15,2.81,2.81,0,0,0,0-.3.91.91,0,0,0-.06-.26.79.79,0,0,0-.22-.18s-.09,0-.14-.06-.29-.14-.33-.24,0-.07,0-.1a1.92,1.92,0,0,0-.13-.17c-.07-.12-.13-.26-.21-.38a.71.71,0,0,0-.11-.17s-.1-.06-.12-.1,0-.13,0-.17.12-.11.12-.16-.06-.07-.08-.11,0-.14.06-.22a.69.69,0,0,1,0-.08s.07,0,.1-.08,0-.07,0-.09.12-.08.14-.14a1.28,1.28,0,0,0,0-.34s-.05-.08-.06-.12,0-.16-.11-.15-.08.05-.11.08,0,.09-.05.1-.09-.07-.17-.09l-.1,0c-.06,0-.08-.11-.14-.15s-.1,0-.13-.06,0-.08,0-.11-.12-.19-.19-.22a1.17,1.17,0,0,0-.2-.05l-.08,0-.11,0c-.12-.06-.18-.25-.33-.25s-.12.07-.18.07a.79.79,0,0,1-.23-.08l-.21-.09c-.05,0-.09-.07-.13-.09l-.11,0a.74.74,0,0,1-.12-.09c-.05,0-.1-.08-.1-.12s0-.09,0-.13a.47.47,0,0,0-.16-.33l-.16-.18a.11.11,0,0,0,0-.08l-.1-.15s-.11-.1-.12-.15,0-.13,0-.2S9,9.25,9,9.39s.06.09.07.13,0,.09,0,.14.06.09.07.14,0,.17,0,.22.1.09.06.15-.08-.05-.12-.08S9.05,10,9,10s0-.08,0-.13-.19-.08-.19-.17.07-.06.07-.11-.08-.11-.1-.16,0-.12,0-.18a1,1,0,0,0,0-.18S8.72,9,8.68,9s-.09,0-.12-.07a.66.66,0,0,1,0-.15,1.76,1.76,0,0,1,0-.23.59.59,0,0,1,0-.23c0-.06.08-.09.11-.15a.69.69,0,0,1,0-.13,2.05,2.05,0,0,1,.2-.23.93.93,0,0,0,.18-.26.66.66,0,0,0,0-.15c0-.06-.12-.11-.11-.17s.06,0,.08-.09A.36.36,0,0,0,9.1,7a1,1,0,0,1,0-.18s.09-.07.05-.13S9,6.7,9,6.67s0-.08,0-.14,0-.06,0-.08S9,6.38,9,6.36s0-.08-.07-.12a5.23,5.23,0,0,1,2.35-1.08Z"/></g></g></g></g></svg>