<svg xmlns="http://www.w3.org/2000/svg" xmlns:xlink="http://www.w3.org/1999/xlink" viewBox="0 0 270 162"><defs><style>.cls-1{fill:#fff;}.cls-2{fill:#303642;}.cls-3{fill:url(#linear-gradient);}.cls-4{fill:url(#linear-gradient-2);}</style><linearGradient id="linear-gradient" x1="167.17" y1="63.32" x2="127.42" y2="162.93" gradientUnits="userSpaceOnUse"><stop offset="0" stop-color="#00b3f0"/><stop offset="1" stop-color="#303642"/></linearGradient><linearGradient id="linear-gradient-2" x1="116.47" y1="-0.16" x2="145.12" y2="164.74" xlink:href="#linear-gradient"/></defs><g id="Layer_2" data-name="Layer 2"><g id="Front"><rect class="cls-1" width="270" height="162"/><path class="cls-2" d="M155.33,49.25,123,0H0V162H127.77L154,68.5l2.7-9.64A13.36,13.36,0,0,0,155.33,49.25Z"/><path class="cls-3" d="M158.34,75.18,154,68.5,127.77,162H139l21-75A16.33,16.33,0,0,0,158.34,75.18Z"/><path class="cls-4" d="M148,58.86,119.09,162h3.19L151.17,58.86a13.31,13.31,0,0,0-1.33-9.61L117.52,0h-3.19l32.32,49.25A13.31,13.31,0,0,1,148,58.86Z"/></g></g></svg>