<svg xmlns="http://www.w3.org/2000/svg" xmlns:xlink="http://www.w3.org/1999/xlink" viewBox="0 0 538.36 642.31"><defs><style>.cls-1{fill:none;}.cls-2{clip-path:url(#clip-path);}.cls-3{fill:#fff;}.cls-4{fill:#1b2533;}.cls-5,.cls-7,.cls-8{fill:#e91e36;}.cls-5{filter:url(#filter);}.cls-6{fill:#921a1d;filter:url(#filter-2);}.cls-7{filter:url(#filter-3);}</style><clipPath id="clip-path"><rect class="cls-1" x="68.45" y="25.77" width="321.17" height="535.29" transform="translate(458.08 586.84) rotate(180)"/></clipPath><filter id="filter" x="34.63" y="145.42" width="229" height="127" filterUnits="userSpaceOnUse"><feOffset dx="6" dy="5" input="SourceAlpha"/><feGaussianBlur stdDeviation="7" result="blur"/><feFlood/><feComposite operator="in" in2="blur"/><feComposite in="SourceGraphic"/></filter><filter id="filter-2" x="121.63" y="148.42" width="132" height="123" filterUnits="userSpaceOnUse"><feOffset dx="-3" dy="-3" input="SourceAlpha"/><feGaussianBlur stdDeviation="4" result="blur-2"/><feFlood/><feComposite operator="in" in2="blur-2"/><feComposite in="SourceGraphic"/></filter><filter id="filter-3" x="118.63" y="130.42" width="362" height="175" filterUnits="userSpaceOnUse"><feOffset dx="6" dy="5" input="SourceAlpha"/><feGaussianBlur stdDeviation="7" result="blur-3"/><feFlood/><feComposite operator="in" in2="blur-3"/><feComposite in="SourceGraphic"/></filter></defs><g id="Layer_2" data-name="Layer 2"><g id="OBJECTS"><g class="cls-2"><rect class="cls-3" x="34.75" width="422.95" height="618.56" transform="translate(492.45 618.56) rotate(180)"/><path class="cls-4" d="M37.73,235S170,174.56,197.16,191.81l-16.37,40.27s255.92-72,288.91-43l68.66,453.18L0,582.07Z"/><path class="cls-5" d="M220.51,162.76c-28.24-2.27-96.11-3.56-159.9,26.81a16.67,16.67,0,0,0-9.4,14.11l-1.4,24.39a16.75,16.75,0,0,0,25.12,15.48c31.36-18.24,86.33-44.7,145-47.34a16.76,16.76,0,0,0,15.88-19h0A16.75,16.75,0,0,0,220.51,162.76Z"/><path class="cls-6" d="M140.22,225c16.48-16,55.29-51.58,82.87-60.49a9.58,9.58,0,0,1,12.76,7.65l8.08,46a9.83,9.83,0,0,1-5.17,10.43l-62.11,32.17A9.81,9.81,0,0,1,166,259.7l-25.05-20A9.82,9.82,0,0,1,140.22,225Z"/><path class="cls-7" d="M440,206.72c-25-.36-128.07,2.89-282.88,70.54a16.3,16.3,0,0,1-22.81-15.87l1.49-25.9a16.3,16.3,0,0,1,9.56-13.93c38.49-17.36,192.18-82.87,301.94-74.1a6.84,6.84,0,0,1,6.21,7.8l-6.69,45.64A6.79,6.79,0,0,1,440,206.72Z"/><path class="cls-8" d="M192.74,16.42h72a11,11,0,0,1,11,11h0a11,11,0,0,1-11,11h-72a11,11,0,0,1-11-11h0A11,11,0,0,1,192.74,16.42Z"/></g></g></g></svg>