<svg xmlns="http://www.w3.org/2000/svg" viewBox="0 0 44.01 32.95"><defs><style>.cls-1{fill:#ec1b34;}.cls-2{fill:#fff;}.cls-3{fill:#e91e36;}</style></defs><g id="Layer_2" data-name="Layer 2"><g id="OBJECTS"><path class="cls-1" d="M17.76,32.55A21.94,21.94,0,0,1,.09,12.91,22,22,0,0,1,0,10.62a.84.84,0,0,1,.89-.81l3.82.2a.85.85,0,0,1,.79.86V11a16.51,16.51,0,0,0,33,.75.84.84,0,0,1,.84-.81h3.82a.84.84,0,0,1,.85.86A22,22,0,0,1,17.76,32.55Z"/><path class="cls-2" d="M12.2,12a3.57,3.57,0,0,0-3.41,4.7,14,14,0,0,0,26.44,0A3.57,3.57,0,0,0,31.82,12Z"/><path class="cls-3" d="M12.2,14A3.56,3.56,0,0,1,8.79,9.33a14,14,0,0,1,26.44,0A3.56,3.56,0,0,1,31.82,14Z"/></g></g></svg>