<svg xmlns="http://www.w3.org/2000/svg" viewBox="0 0 17.73 13.07"><defs><style>.cls-1{fill:#1b2533;}</style></defs><g id="Layer_2" data-name="Layer 2"><g id="OBJECTS"><path class="cls-1" d="M17.73.64a.25.25,0,0,0,0-.08.13.13,0,0,0,0-.06s0,0,0-.06l0-.06a.14.14,0,0,0,0-.06l-.05,0s0,0,0,0l0,0-.05,0,0,0-.06,0-.06,0-.06,0-.06,0H.52L.45,0,.39.06l0,0L.28.13.23.17s0,0-.05,0l0,0s0,0,0,0l0,0,0,.06a.14.14,0,0,0,0,.06A.14.14,0,0,0,0,.5s0,0,0,.06A.19.19,0,0,1,0,.64V12.39a.67.67,0,0,0,.67.68H17.06a.67.67,0,0,0,.67-.68V.64Zm-2.5.7L8.87,6.77,2.5,1.34ZM1.34,11.72V2.13l7.09,6a.66.66,0,0,0,.44.16.64.64,0,0,0,.43-.16l7.09-6v9.59Z"/></g></g></svg>