<svg xmlns="http://www.w3.org/2000/svg" viewBox="0 0 16.95 16.95"><defs><style>.cls-1{fill:#1b2533;}</style></defs><g id="Layer_2" data-name="Layer 2"><g id="OBJECTS"><path class="cls-1" d="M8.48,0A8.48,8.48,0,1,0,17,8.47,8.48,8.48,0,0,0,8.48,0Zm7.15,7.83h-2A11.32,11.32,0,0,0,12,2.18,7.2,7.2,0,0,1,15.63,7.83ZM7.83,1.39V7.83H4.65C4.81,4.62,6.15,2,7.83,1.39Zm0,7.73v6.44c-1.68-.56-3-3.23-3.18-6.44Zm1.29,6.44V9.12H12.3C12.14,12.33,10.8,15,9.12,15.56Zm0-7.73V1.39c1.68.56,3,3.23,3.18,6.44ZM5,2.18A11.32,11.32,0,0,0,3.36,7.83h-2A7.2,7.2,0,0,1,5,2.18ZM1.32,9.12h2A11.32,11.32,0,0,0,5,14.77,7.2,7.2,0,0,1,1.32,9.12ZM12,14.77a11.32,11.32,0,0,0,1.64-5.65h2A7.2,7.2,0,0,1,12,14.77Z"/></g></g></svg>