<svg xmlns="http://www.w3.org/2000/svg" viewBox="0 0 16.95 16.87"><defs><style>.cls-1{fill:#1b2533;}</style></defs><g id="Layer_2" data-name="Layer 2"><g id="OBJECTS"><path class="cls-1" d="M.84,1.73l0,0A10.52,10.52,0,0,0,1.62,1L1.7.89C1.84.75,2,.61,2.12.48A1.41,1.41,0,0,1,4.26.5l2.2,2.19a1.46,1.46,0,0,1,.49,1,1.47,1.47,0,0,1-.49,1.05L5.09,6.15A.25.25,0,0,0,5,6.31.27.27,0,0,0,5,6.4l0,0c.08.13.15.28.23.43s.14.29.23.44A14.32,14.32,0,0,0,8.6,10.69h0a8.53,8.53,0,0,0,1.92,1.18h0c.14,0,.17,0,.26-.05h0c.31-.34.62-.65,1-1l.23-.24.11-.11a1.4,1.4,0,0,1,2.14,0l1.08,1.09a1.89,1.89,0,0,1,.2.2l.19.18c.28.27.51.49.73.73h0a1.46,1.46,0,0,1,.46,1,1.53,1.53,0,0,1-.46,1v0l-1.36,1.36a2.57,2.57,0,0,1-1.58.74,6.2,6.2,0,0,1-2.78-.49,17.07,17.07,0,0,1-5-3A18.49,18.49,0,0,1,1,7.28,9.44,9.44,0,0,1,0,3.92V3.7A2.56,2.56,0,0,1,.84,1.73Zm14.84,12a.5.5,0,0,0-.1-.14h0c-.21-.22-.43-.44-.7-.7l-.19-.19-.2-.19-1.09-1.09c-.1-.1-.16-.13-.16-.14a.68.68,0,0,0-.18.14l-.11.11-.22.22,0,0c-.35.34-.65.64-.94,1l-.07.07a1.43,1.43,0,0,1-1.53.33h-.08a9.6,9.6,0,0,1-2.26-1.38l0,0A15.14,15.14,0,0,1,4.44,8a5.53,5.53,0,0,1-.31-.55A2.63,2.63,0,0,0,4,7.09v0L3.9,7a1.43,1.43,0,0,1-.17-.68,1.45,1.45,0,0,1,.46-1.06L5.56,3.88a.61.61,0,0,0,.11-.14s0-.06-.08-.11l0,0L3.35,1.39c-.11-.11-.16-.12-.16-.12A.54.54,0,0,0,3,1.39l0,0c-.12.11-.23.23-.35.35l-.09.09c-.25.26-.52.54-.83.81a1.26,1.26,0,0,0-.42,1v.15a8.18,8.18,0,0,0,.87,2.88A17.09,17.09,0,0,0,6.6,12.4a15.27,15.27,0,0,0,4.6,2.77,5,5,0,0,0,2.23.41,1.19,1.19,0,0,0,.79-.36l1.35-1.36A.5.5,0,0,0,15.68,13.7Z"/></g></g></svg>