<svg xmlns="http://www.w3.org/2000/svg" viewBox="0 0 9.39 7.61"><defs><style>.cls-1{fill:#1b2533;}</style></defs><g id="Layer_2" data-name="Layer 2"><g id="OBJECTS"><path class="cls-1" d="M8.7,1.08a1.65,1.65,0,0,1-.36,0v0A3,3,0,0,0,9.07.25c0-.09,0-.13,0-.13L8.46.38,8,.61H8A2.07,2.07,0,0,0,6.46,0,1.81,1.81,0,0,0,4.54,1.68a2.29,2.29,0,0,0,.08.64h0a6,6,0,0,1-2.35-.7C.73.84.64.3.64.3A2.05,2.05,0,0,0,.52,2.07a2.12,2.12,0,0,0,.69.81h0A1.44,1.44,0,0,1,.72,2.8a.9.9,0,0,1-.35-.17C.22,3,.52,3.66,1,4.12a2.74,2.74,0,0,0,.86.45L1,4.59C1,5.44,2.8,5.94,2.8,5.94h0A3,3,0,0,1,1,6.6a3.25,3.25,0,0,1-1-.15A4.74,4.74,0,0,0,3.22,7.61a5.61,5.61,0,0,0,5.16-5.7h0a2.46,2.46,0,0,0,.47-.4A3.32,3.32,0,0,0,9.39.81S8.9,1,8.7,1.08Z"/><path class="cls-1" d="M9.07.12Z"/></g></g></svg>