<svg xmlns="http://www.w3.org/2000/svg" xmlns:xlink="http://www.w3.org/1999/xlink" viewBox="0 0 578.97 725.06"><defs><style>.cls-1{fill:none;}.cls-2{clip-path:url(#clip-path);}.cls-3{fill:#fff;}.cls-4{fill:#1b2533;}.cls-5,.cls-7,.cls-8{fill:#e91e36;}.cls-5{filter:url(#filter);}.cls-6{fill:#921a1d;filter:url(#filter-2);}.cls-7{filter:url(#filter-3);}</style><clipPath id="clip-path"><rect class="cls-1" x="207.34" y="164" width="321.17" height="535.29"/></clipPath><filter id="filter" x="327.34" y="319.64" width="229" height="127" filterUnits="userSpaceOnUse"><feOffset dx="6" dy="5" input="SourceAlpha"/><feGaussianBlur stdDeviation="7" result="blur"/><feFlood/><feComposite operator="in" in2="blur"/><feComposite in="SourceGraphic"/></filter><filter id="filter-2" x="319.34" y="304.64" width="132" height="123" filterUnits="userSpaceOnUse"><feOffset dx="-3" dy="-3" input="SourceAlpha"/><feGaussianBlur stdDeviation="4" result="blur-2"/><feFlood/><feComposite operator="in" in2="blur-2"/><feComposite in="SourceGraphic"/></filter><filter id="filter-3" x="110.34" y="286.64" width="362" height="175" filterUnits="userSpaceOnUse"><feOffset dx="6" dy="5" input="SourceAlpha"/><feGaussianBlur stdDeviation="7" result="blur-3"/><feFlood/><feComposite operator="in" in2="blur-3"/><feComposite in="SourceGraphic"/></filter></defs><g id="Layer_2" data-name="Layer 2"><g id="OBJECTS"><g class="cls-2"><rect class="cls-3" x="139.27" y="106.5" width="422.95" height="618.56"/><path class="cls-4" d="M541.24,347.08s-132.3,60.42-159.43,43.17L398.18,350s-255.92,72-288.91,42.95L0,228.4,579,0Z"/><path class="cls-5" d="M358.46,419.31c28.24,2.26,96.11,3.56,159.9-26.81a16.67,16.67,0,0,0,9.4-14.12l1.4-24.38A16.75,16.75,0,0,0,504,338.52c-31.36,18.24-86.33,44.7-145,47.34a16.75,16.75,0,0,0-15.88,18.95h0A16.75,16.75,0,0,0,358.46,419.31Z"/><path class="cls-6" d="M438.75,357.12c-16.48,16-55.3,51.58-82.88,60.49A9.59,9.59,0,0,1,343.11,410l-8.07-46a9.85,9.85,0,0,1,5.17-10.44l62.1-32.17A9.87,9.87,0,0,1,413,322.36l25,20A9.83,9.83,0,0,1,438.75,357.12Z"/><path class="cls-7" d="M138.94,375.34c25.05.37,128.06-2.88,282.88-70.53a16.3,16.3,0,0,1,22.81,15.87l-1.49,25.9a16.3,16.3,0,0,1-9.57,13.93c-38.48,17.36-192.17,82.87-301.93,74.09a6.83,6.83,0,0,1-6.21-7.79l6.69-45.64A6.79,6.79,0,0,1,138.94,375.34Z"/><path class="cls-8" d="M205.84,615.64h0a12.5,12.5,0,0,1-12.5-12.5v-80a12.5,12.5,0,0,1,12.5-12.5h0a12.5,12.5,0,0,1,12.5,12.5v80A12.5,12.5,0,0,1,205.84,615.64Z"/><path class="cls-8" d="M529.84,615.64h0a12.5,12.5,0,0,1-12.5-12.5v-80a12.5,12.5,0,0,1,12.5-12.5h0a12.5,12.5,0,0,1,12.5,12.5v80A12.5,12.5,0,0,1,529.84,615.64Z"/></g></g></g></svg>