<svg xmlns="http://www.w3.org/2000/svg" viewBox="0 0 10.28 10.28"><defs><style>.cls-1{fill:#1b2533;}</style></defs><g id="Layer_2" data-name="Layer 2"><g id="OBJECTS"><path class="cls-1" d="M5.14,10.28a5.12,5.12,0,0,1-2.56-.69l-2,.69L1,8.16a5.14,5.14,0,1,1,4.16,2.12ZM2.67,8.75l.15.09a4.35,4.35,0,1,0-1.13-1L1.8,8,1.58,9.12Z"/><path class="cls-1" d="M2.54,3.16s.31-.52.55-.55.56,0,.65.13.47,1.09.47,1.09a.39.39,0,0,1,0,.32,3.44,3.44,0,0,1-.33.38.29.29,0,0,0,0,.33,5.93,5.93,0,0,0,.73.89,4,4,0,0,0,1.17.69.25.25,0,0,0,.18-.06c.07-.07.45-.55.45-.55a.28.28,0,0,1,.33-.06l1.08.53a.19.19,0,0,1,.11.19,1.33,1.33,0,0,1-.19.67,1.54,1.54,0,0,1-1.07.53A4.68,4.68,0,0,1,4,6.51,5.25,5.25,0,0,1,2.49,4.4C2.34,3.74,2.36,3.44,2.54,3.16Z"/></g></g></svg>