<svg xmlns="http://www.w3.org/2000/svg" viewBox="0 0 11.15 10.65"><defs><style>.cls-1{fill:#1b2533;}</style></defs><g id="Layer_2" data-name="Layer 2"><g id="OBJECTS"><path class="cls-1" d="M7.71,10.65H3.44A3.45,3.45,0,0,1,0,7.21V3.44A3.44,3.44,0,0,1,3.44,0H7.71a3.44,3.44,0,0,1,3.44,3.44V7.21A3.45,3.45,0,0,1,7.71,10.65ZM3.44.76A2.68,2.68,0,0,0,.76,3.44V7.21A2.68,2.68,0,0,0,3.44,9.88H7.71a2.68,2.68,0,0,0,2.68-2.67V3.44A2.68,2.68,0,0,0,7.71.76Z"/><path class="cls-1" d="M5.58,8.39A3.07,3.07,0,1,1,8.64,5.32,3.08,3.08,0,0,1,5.58,8.39ZM5.58,3A2.3,2.3,0,1,0,7.87,5.32,2.3,2.3,0,0,0,5.58,3Z"/><path class="cls-1" d="M9.23,2.36A.64.64,0,0,1,8.59,3a.64.64,0,0,1,0-1.27A.64.64,0,0,1,9.23,2.36Z"/></g></g></svg>