<svg xmlns="http://www.w3.org/2000/svg" xmlns:xlink="http://www.w3.org/1999/xlink" viewBox="0 0 288 504"><defs><style>.cls-1{fill:url(#linear-gradient);}.cls-2{fill:#fff;}.cls-3{fill:url(#linear-gradient-2);}.cls-4{fill:#e20124;}.cls-5{fill:url(#linear-gradient-3);}.cls-6{fill:url(#linear-gradient-4);}.cls-7{fill:url(#linear-gradient-5);}.cls-8{fill:#9c1e21;}</style><linearGradient id="linear-gradient" y1="250.61" x2="288" y2="250.61" gradientUnits="userSpaceOnUse"><stop offset="0" stop-color="#fff"/><stop offset="1" stop-color="#939598"/></linearGradient><linearGradient id="linear-gradient-2" y1="427.76" x2="288" y2="427.76" xlink:href="#linear-gradient"/><linearGradient id="linear-gradient-3" x1="243.46" y1="-54.51" x2="174.47" y2="33.98" gradientUnits="userSpaceOnUse"><stop offset="0" stop-color="#fff" stop-opacity="0"/><stop offset="1" stop-color="#d1d3d4"/></linearGradient><linearGradient id="linear-gradient-4" y1="30.52" x2="288" y2="30.52" xlink:href="#linear-gradient"/><linearGradient id="linear-gradient-5" x1="183.45" y1="20.05" x2="159.45" y2="69.55" xlink:href="#linear-gradient-3"/></defs><g id="Layer_2" data-name="Layer 2"><g id="Layer_1-2" data-name="Layer 1"><path class="cls-1" d="M288,266.92V240.41C143.23,191.88,42.25,253.05,0,279,42.25,253.05,143.23,209.8,288,266.92Z"/><path class="cls-2" d="M288,240.41V25A25.07,25.07,0,0,0,263,0H25A25.07,25.07,0,0,0,0,25V279C42.25,253.05,143.23,191.88,288,240.41Z"/><path class="cls-3" d="M0,441.06V479a25.07,25.07,0,0,0,25,25H263a25.07,25.07,0,0,0,25-25V351.52c-34.35,18-67.25,44.42-96.22,69.84C138.43,468.17,81.53,508.57,0,441.06Z"/><path class="cls-4" d="M0,279V441.06c81.53,67.51,138.43,27.11,191.78-19.7,29-25.42,61.87-51.86,96.22-69.84v-84.6C143.23,209.8,42.25,253.05,0,279Z"/><path class="cls-5" d="M288,85.07V28.81C227.11,10.87,101.47-12.1,0,61.05V69.2C110.23,4.07,229.56,52.6,288,85.07Z"/><path class="cls-6" d="M288,28.81V25A25.07,25.07,0,0,0,263,0H25A25.07,25.07,0,0,0,0,25V61.05C101.47-12.1,227.11,10.87,288,28.81Z"/><path class="cls-7" d="M0,69.2v1.26C113.54,9.15,234.11,89.08,288,133.62V85.07C229.56,52.6,110.23,4.07,0,69.2Z"/><path class="cls-8" d="M191.78,421.36C138.43,468.17,81.53,508.57,0,441.06v10c81.53,67.51,138.43,57.11,191.78,10.3,29-25.42,61.87-51.86,96.22-69.84v-40C253.65,369.5,220.75,395.94,191.78,421.36Z"/></g></g></svg>