<svg xmlns="http://www.w3.org/2000/svg" xmlns:xlink="http://www.w3.org/1999/xlink" viewBox="0 0 288 504"><defs><style>.cls-1{fill:#fff;}.cls-2{fill:url(#linear-gradient);}.cls-3{fill:url(#linear-gradient-2);}.cls-4{fill:#9c1e21;}.cls-5{fill:#e20124;}.cls-6{fill:url(#linear-gradient-3);}</style><linearGradient id="linear-gradient" x1="108.04" y1="240.52" x2="253.03" y2="211.8" gradientUnits="userSpaceOnUse"><stop offset="0" stop-color="#fff" stop-opacity="0"/><stop offset="1" stop-color="#d1d3d4"/></linearGradient><linearGradient id="linear-gradient-2" y1="365.25" x2="288" y2="365.25" gradientUnits="userSpaceOnUse"><stop offset="0" stop-color="#fff"/><stop offset="1" stop-color="#939598"/></linearGradient><linearGradient id="linear-gradient-3" x1="119.05" y1="208.27" x2="197.31" y2="129.13" xlink:href="#linear-gradient"/></defs><g id="Layer_2" data-name="Layer 2"><g id="Layer_1-2" data-name="Layer 1"><path class="cls-1" d="M263,0H25A25.07,25.07,0,0,0,0,25V236.48c20.48-8,89.37-27.15,190,26.4,28.23,15,65.72,37.13,98,28.48V25A25.07,25.07,0,0,0,263,0Z"/><path class="cls-2" d="M248.32,240.12c-19.6,1.29-37.47-6.07-54.28-15.39-7-3.87-13.76-8.08-20.42-12.15-23.84-14.58-48.85-27.34-75.79-35.13C50,163.61,13,171.4,0,176.48v60c20.48-8,89.37-27.15,190,26.4,28.23,15,65.72,37.13,98,28.48V211.78C288,229.71,262,239.22,248.32,240.12Z"/><path class="cls-3" d="M190,262.88C89.37,209.33,20.48,228.45,0,236.48v22c23.74-10,90.86-28.87,186.87,22.22-34.83-18.53-74.85,1.46-105,19.65C59.12,314.09,34.82,326,0,306.12V479a25.07,25.07,0,0,0,25,25H263a25.07,25.07,0,0,0,25-25V291.36C255.71,300,218.22,277.9,190,262.88Z"/><path class="cls-4" d="M81.91,310.33c29.43-17.78,68.33-46.83,102.6-30.81-34.27-16.45-73.17,3-102.6,20.81C59.12,314.09,34.82,326,0,306.12v10C34.82,336,59.12,324.09,81.91,310.33Z"/><path class="cls-5" d="M194,254.73c-7-3.87-13.76-8.08-20.42-12.15-23.84-14.58-48.85-27.34-75.79-35.14C50,193.61,13,201.4,0,206.48v30c20.48-8,89.37-27.15,190,26.4,28.23,15,65.72,37.13,98,28.48V241.78c0,17.93-26,27.44-39.68,28.34C228.72,271.41,210.85,264.05,194,254.73Z"/><path class="cls-6" d="M248.32,210.12c-19.6,1.29-37.47-6.07-54.28-15.39-7-3.87-13.76-8.08-20.42-12.15-23.84-14.58-48.85-27.34-75.79-35.13C50,133.61,13,141.4,0,146.48v30c13-5.08,50-12.87,97.83,1,26.94,7.79,52,20.55,75.79,35.13,6.66,4.07,13.45,8.28,20.42,12.15,16.81,9.32,34.68,16.68,54.28,15.39C262,239.22,288,229.71,288,211.78v-30C288,199.71,262,209.22,248.32,210.12Z"/><path class="cls-5" d="M263,0H25A25,25,0,0,0,4.6,10.6C35.81,5,71.11,25.77,98,40.08,198.63,93.63,267.52,74.5,288,66.47V25A25.07,25.07,0,0,0,263,0Z"/><path class="cls-4" d="M104,25.26C88.91,16.26,74.12,6.8,58.09,0H25A25,25,0,0,0,4.6,10.6C35.81,5,71.11,25.77,98,40.08,198.63,93.63,267.52,74.5,288,66.47v-5c-18.29,7.18-71,16.26-153.73-20A273.32,273.32,0,0,1,104,25.26Z"/><path class="cls-5" d="M81.91,300.33c29.43-17.78,68.33-37.26,102.6-20.81.79.37,1.57.75,2.36,1.16C90.86,229.59,23.74,248.44,0,258.46v47.66C34.82,326,59.12,314.09,81.91,300.33Z"/></g></g></svg>