<svg xmlns="http://www.w3.org/2000/svg" xmlns:xlink="http://www.w3.org/1999/xlink" viewBox="0 0 270 162"><defs><style>.cls-1{fill:#fff;}.cls-2{fill:#303642;}.cls-3{fill:url(#linear-gradient);}.cls-4{fill:url(#linear-gradient-2);}.cls-5{fill:url(#linear-gradient-3);}.cls-6{fill:url(#linear-gradient-4);}</style><linearGradient id="linear-gradient" x1="64.17" y1="63.32" x2="24.43" y2="162.93" gradientTransform="translate(270 162) rotate(180)" gradientUnits="userSpaceOnUse"><stop offset="0" stop-color="#0095da"/><stop offset="1" stop-color="#303642"/></linearGradient><linearGradient id="linear-gradient-2" x1="13.47" y1="-0.16" x2="42.12" y2="164.74" xlink:href="#linear-gradient"/><linearGradient id="linear-gradient-3" x1="64.17" y1="63.32" x2="24.43" y2="162.93" gradientTransform="matrix(1, 0, 0, 1, 0, 0)" xlink:href="#linear-gradient"/><linearGradient id="linear-gradient-4" x1="13.47" y1="-0.16" x2="42.12" y2="164.74" gradientTransform="matrix(1, 0, 0, 1, 0, 0)" xlink:href="#linear-gradient"/></defs><g id="Layer_2" data-name="Layer 2"><g id="Back"><rect class="cls-1" width="270" height="162"/><path class="cls-2" d="M217.67,112.75,250,162h20V0H245.23L219.05,93.5l-2.7,9.64A13.31,13.31,0,0,0,217.67,112.75Z"/><path class="cls-3" d="M214.66,86.82l4.39,6.68L245.23,0H234.05L213,75A16.29,16.29,0,0,0,214.66,86.82Z"/><path class="cls-4" d="M225,103.14,253.91,0h-3.19L221.83,103.14a13.31,13.31,0,0,0,1.33,9.61L255.48,162h3.19l-32.32-49.25A13.31,13.31,0,0,1,225,103.14Z"/><path class="cls-2" d="M52.33,49.25,20,0H0V162H24.77L51,68.5l2.7-9.64A13.31,13.31,0,0,0,52.33,49.25Z"/><path class="cls-5" d="M55.34,75.18,51,68.5,24.77,162H36L57,87A16.29,16.29,0,0,0,55.34,75.18Z"/><path class="cls-6" d="M45,58.86,16.09,162h3.19L48.17,58.86a13.31,13.31,0,0,0-1.33-9.61L14.52,0H11.33L43.65,49.25A13.31,13.31,0,0,1,45,58.86Z"/></g></g></svg>